<region> sample=Samples\L&PR_21.wav
key=0
//pan=-64
pitch_keycenter=21
ampeg_sustain=100

<region> sample=Samples\L&PR_21.wav
key=1
//pan=-63
pitch_keycenter=21
ampeg_sustain=100

<region> sample=Samples\L&PR_21.wav
key=2
//pan=-62
pitch_keycenter=21
ampeg_sustain=100

<region> sample=Samples\L&PR_21.wav
key=3
//pan=-61
pitch_keycenter=21
ampeg_sustain=100

<region> sample=Samples\L&PR_21.wav
key=4
//pan=-60
pitch_keycenter=21
ampeg_sustain=100

<region> sample=Samples\L&PR_21.wav
key=5
//pan=-59
pitch_keycenter=21
ampeg_sustain=100

<region> sample=Samples\L&PR_21.wav
key=6
//pan=-58
pitch_keycenter=21
ampeg_sustain=100

<region> sample=Samples\L&PR_21.wav
key=7
//pan=-57
pitch_keycenter=21
ampeg_sustain=100

<region> sample=Samples\L&PR_21.wav
key=8
//pan=-56
pitch_keycenter=21
ampeg_sustain=100

<region> sample=Samples\L&PR_21.wav
key=9
//pan=-55
pitch_keycenter=21
ampeg_sustain=100

<region> sample=Samples\L&PR_21.wav
key=10
//pan=-54
pitch_keycenter=21
ampeg_sustain=100

<region> sample=Samples\L&PR_21.wav
key=11
//pan=-53
pitch_keycenter=21
ampeg_sustain=100

<region> sample=Samples\L&PR_21.wav
key=12
//pan=-52
pitch_keycenter=21
ampeg_sustain=100

<region> sample=Samples\L&PR_21.wav
key=13
//pan=-51
pitch_keycenter=21
ampeg_sustain=100

<region> sample=Samples\L&PR_21.wav
key=14
//pan=-50
pitch_keycenter=21
ampeg_sustain=100

<region> sample=Samples\L&PR_21.wav
key=15
//pan=-49
pitch_keycenter=21
ampeg_sustain=100

<region> sample=Samples\L&PR_21.wav
key=16
//pan=-48
pitch_keycenter=21
ampeg_sustain=100

<region> sample=Samples\L&PR_21.wav
key=17
//pan=-47
pitch_keycenter=21
ampeg_sustain=100

<region> sample=Samples\L&PR_21.wav
key=18
//pan=-46
pitch_keycenter=21
ampeg_sustain=100

<region> sample=Samples\L&PR_21.wav
key=19
//pan=-45
pitch_keycenter=21
ampeg_sustain=100

<region> sample=Samples\L&PR_21.wav
key=20
//pan=-44
pitch_keycenter=21
ampeg_sustain=100

<region> sample=Samples\L&PR_21.wav
key=21
//pan=-43
ampeg_sustain=100

<region> sample=Samples\L&PR_22.wav
key=22
//pan=-42
ampeg_sustain=100

<region> sample=Samples\L&PR_23.wav
key=23
//pan=-41
ampeg_decay=27

<region> sample=Samples\L&PR_24.wav
key=24
//pan=-40
ampeg_decay=27

<region> sample=Samples\L&PR_25.wav
key=25
//pan=-39
ampeg_decay=27

<region> sample=Samples\L&PR_26.wav
key=26
//pan=-38
ampeg_decay=27

<region> sample=Samples\L&PR_27.wav
key=27
//pan=-37
ampeg_decay=27

<region> sample=Samples\L&PR_28.wav
key=28
//pan=-36
ampeg_decay=27

<region> sample=Samples\L&PR_29.wav
key=29
//pan=-35
ampeg_decay=27

<region> sample=Samples\L&PR_30.wav
key=30
//pan=-34
ampeg_decay=27

<region> sample=Samples\L&PR_31.wav
key=31
//pan=-33
ampeg_decay=27

<region> sample=Samples\L&PR_32.wav
key=32
//pan=-32
ampeg_decay=27

<region> sample=Samples\L&PR_33.wav
key=33
//pan=-31
ampeg_decay=27

<region> sample=Samples\L&PR_34.wav
key=34
//pan=-30
ampeg_decay=27

<region> sample=Samples\L&PR_35.wav
key=35
//pan=-29
ampeg_decay=27

<region> sample=Samples\L&PR_36.wav
key=36
//pan=-28
ampeg_decay=27

<region> sample=Samples\L&PR_37.wav
key=37
//pan=-27
ampeg_decay=27

<region> sample=Samples\L&PR_38.wav
key=38
//pan=-26
ampeg_decay=27

<region> sample=Samples\L&PR_39.wav
key=39
//pan=-25
ampeg_decay=27

<region> sample=Samples\L&PR_40.wav
key=40
//pan=-24
ampeg_decay=27

<region> sample=Samples\L&PR_41.wav
key=41
//pan=-23
ampeg_decay=27

<region> sample=Samples\L&PR_42.wav
key=42
//pan=-22
ampeg_decay=27

<region> sample=Samples\L&PR_43.wav
key=43
//pan=-21
ampeg_decay=27

<region> sample=Samples\L&PR_44.wav
key=44
//pan=-20
ampeg_decay=32

<region> sample=Samples\L&PR_45.wav
key=45
//pan=-19
ampeg_decay=32

<region> sample=Samples\L&PR_46.wav
key=46
//pan=-18
ampeg_decay=32

<region> sample=Samples\L&PR_47.wav
key=47
//pan=-17
ampeg_decay=32

<region> sample=Samples\L&PR_48.wav
key=48
//pan=-16
ampeg_decay=32

<region> sample=Samples\L&PR_49.wav
key=49
//pan=-15
ampeg_decay=32

<region> sample=Samples\L&PR_50.wav
key=50
//pan=-14
ampeg_decay=32

<region> sample=Samples\L&PR_51.wav
key=51
//pan=-13
ampeg_decay=32

<region> sample=Samples\L&PR_52.wav
key=52
//pan=-12
ampeg_decay=32

<region> sample=Samples\L&PR_53.wav
key=53
//pan=-11
ampeg_decay=32

<region> sample=Samples\L&PR_54.wav
key=54
//pan=-10
ampeg_decay=32

<region> sample=Samples\L&PR_55.wav
key=55
//pan=-9
ampeg_decay=32

<region> sample=Samples\L&PR_56.wav
key=56
//pan=-8
ampeg_decay=12

<region> sample=Samples\L&PR_57.wav
key=57
//pan=-7
ampeg_decay=12

<region> sample=Samples\L&PR_58.wav
key=58
//pan=-6
ampeg_decay=12

<region> sample=Samples\L&PR_59.wav
key=59
//pan=-5
ampeg_decay=12

<region> sample=Samples\L&PR_60.wav
key=60
//pan=-4
ampeg_decay=12

<region> sample=Samples\L&PR_61.wav
key=61
//pan=-3
ampeg_decay=12

<region> sample=Samples\L&PR_62.wav
key=62
//pan=-2
ampeg_decay=12

<region> sample=Samples\L&PR_63.wav
key=63
//pan=-1
ampeg_decay=12

<region> sample=Samples\L&PR_64.wav
key=64
//pan=0
ampeg_decay=12

<region> sample=Samples\L&PR_65.wav
key=65
//pan=1
ampeg_decay=12

<region> sample=Samples\L&PR_66.wav
key=66
//pan=2
ampeg_decay=12

<region> sample=Samples\L&PR_67.wav
key=67
//pan=3
ampeg_decay=12

<region> sample=Samples\L&PR_68.wav
key=68
//pan=4
ampeg_decay=12

<region> sample=Samples\L&PR_69.wav
key=69
//pan=5
ampeg_decay=12

<region> sample=Samples\L&PR_70.wav
key=70
//pan=6
ampeg_decay=12

<region> sample=Samples\L&PR_71.wav
key=71
//pan=7
ampeg_decay=12

<region> sample=Samples\L&PR_72.wav
key=72
//pan=8
ampeg_decay=12

<region> sample=Samples\L&PR_73.wav
key=73
//pan=9
ampeg_decay=12

<region> sample=Samples\L&PR_74.wav
key=74
//pan=10
ampeg_decay=12

<region> sample=Samples\L&PR_75.wav
key=75
//pan=11
ampeg_decay=12

<region> sample=Samples\L&PR_76.wav
key=76
//pan=12
ampeg_decay=12

<region> sample=Samples\L&PR_77.wav
key=77
//pan=13
ampeg_decay=12

<region> sample=Samples\L&PR_78.wav
key=78
//pan=14
ampeg_decay=12

<region> sample=Samples\L&PR_79.wav
key=79
//pan=15
ampeg_decay=12

<region> sample=Samples\L&PR_80.wav
key=80
//pan=16
ampeg_decay=12

<region> sample=Samples\L&PR_81.wav
key=81
//pan=17
ampeg_decay=12

<region> sample=Samples\L&PR_82.wav
key=82
//pan=18
ampeg_decay=12

<region> sample=Samples\L&PR_83.wav
key=83
//pan=19
ampeg_decay=12

<region> sample=Samples\L&PR_84.wav
key=84
//pan=20
ampeg_decay=12

<region> sample=Samples\L&PR_85.wav
key=85
//pan=21
ampeg_decay=12

<region> sample=Samples\L&PR_86.wav
key=86
//pan=22
ampeg_decay=12

<region> sample=Samples\L&PR_87.wav
key=87
//pan=23
ampeg_decay=12

<region> sample=Samples\L&PR_88.wav
key=88
//pan=24
ampeg_decay=12

<region> sample=Samples\L&PR_89.wav
key=89
//pan=25
ampeg_decay=12

<region> sample=Samples\L&PR_90.wav
key=90
//pan=26
ampeg_decay=12

<region> sample=Samples\L&PR_91.wav
key=91
//pan=27
ampeg_decay=12

<region> sample=Samples\L&PR_92.wav
key=92
//pan=28
ampeg_release=20
ampeg_decay=12

<region> sample=Samples\L&PR_93.wav
key=93
//pan=29
ampeg_release=20
ampeg_decay=12

<region> sample=Samples\L&PR_94.wav
key=94
//pan=30
ampeg_release=20
ampeg_decay=12

<region> sample=Samples\L&PR_95.wav
key=95
//pan=31
ampeg_release=20
ampeg_decay=12

<region> sample=Samples\L&PR_96.wav
key=96
//pan=32
ampeg_release=20
ampeg_decay=12

<region> sample=Samples\L&PR_97.wav
key=97
//pan=33
ampeg_release=20
ampeg_decay=12

<region> sample=Samples\L&PR_98.wav
key=98
//pan=34
ampeg_release=20
ampeg_decay=12

<region> sample=Samples\L&PR_99.wav
key=99
//pan=35
ampeg_release=20
ampeg_decay=12

<region> sample=Samples\L&PR_100.wav
key=100
//pan=36
ampeg_release=20
ampeg_decay=12

<region> sample=Samples\L&PR_101.wav
key=101
//pan=37
ampeg_release=20
ampeg_decay=12

<region> sample=Samples\L&PR_102.wav
key=102
//pan=38
ampeg_release=20
ampeg_decay=12

<region> sample=Samples\L&PR_103.wav
key=103
//pan=39
ampeg_release=20
ampeg_decay=12

<region> sample=Samples\L&PR_104.wav
key=104
//pan=40
ampeg_release=20
ampeg_decay=12

<region> sample=Samples\L&PR_105.wav
key=105
//pan=41
ampeg_release=20
ampeg_decay=12

<region> sample=Samples\L&PR_106.wav
key=106
//pan=42
ampeg_release=20
ampeg_decay=12

<region> sample=Samples\L&PR_107.wav
key=107
//pan=43
ampeg_release=20
ampeg_decay=12

<region> sample=Samples\L&PR_108.wav
key=108
//pan=44
pitch_keycenter=108
ampeg_release=20
ampeg_decay=12

<region> sample=Samples\L&PR_108.wav
key=109
//pan=45
pitch_keycenter=108
ampeg_release=20
ampeg_decay=5.21

<region> sample=Samples\L&PR_108.wav
key=110
//pan=46
pitch_keycenter=108
ampeg_release=20
ampeg_decay=5.21

<region> sample=Samples\L&PR_108.wav
key=111
//pan=47
pitch_keycenter=108
ampeg_release=20
ampeg_decay=5.21

<region> sample=Samples\L&PR_108.wav
key=112
//pan=48
pitch_keycenter=108
ampeg_release=20
ampeg_decay=5.21

<region> sample=Samples\L&PR_108.wav
key=113
//pan=49
pitch_keycenter=108
ampeg_release=20
ampeg_decay=5.21

<region> sample=Samples\L&PR_108.wav
key=114
//pan=50
pitch_keycenter=108
ampeg_release=20
ampeg_decay=5.21

<region> sample=Samples\L&PR_108.wav
key=115
//pan=51
pitch_keycenter=108
ampeg_release=20
ampeg_decay=5.21

<region> sample=Samples\L&PR_108.wav
key=116
//pan=52
pitch_keycenter=108
ampeg_release=20
ampeg_decay=5.21

<region> sample=Samples\L&PR_108.wav
key=117
//pan=53
pitch_keycenter=108
ampeg_release=20
ampeg_decay=5.21

<region> sample=Samples\L&PR_108.wav
key=118
//pan=54
pitch_keycenter=108
ampeg_release=20
ampeg_decay=5.21

<region> sample=Samples\L&PR_108.wav
key=119
//pan=55
pitch_keycenter=108
ampeg_release=20
ampeg_decay=5.21

<region> sample=Samples\L&PR_108.wav
key=120
//pan=56
pitch_keycenter=108
ampeg_release=20
ampeg_decay=5.21

<region> sample=Samples\L&PR_108.wav
key=121
//pan=57
pitch_keycenter=108
ampeg_release=20
ampeg_decay=5.21

<region> sample=Samples\L&PR_108.wav
key=122
//pan=58
pitch_keycenter=108
ampeg_release=20
ampeg_decay=5.21

<region> sample=Samples\L&PR_108.wav
key=123
//pan=59
pitch_keycenter=108
ampeg_release=20
ampeg_decay=5.21

<region> sample=Samples\L&PR_108.wav
key=124
//pan=60
pitch_keycenter=108
ampeg_release=20
ampeg_decay=5.21

<region> sample=Samples\L&PR_108.wav
key=125
//pan=61
pitch_keycenter=108
ampeg_release=20
ampeg_decay=5.21

<region> sample=Samples\L&PR_108.wav
key=126
//pan=62
pitch_keycenter=108
ampeg_release=20
ampeg_decay=5.21

<region> sample=Samples\L&PR_108.wav
key=127
//pan=63
pitch_keycenter=108
ampeg_release=20
ampeg_decay=5.21